<?xml version="1.0" encoding="UTF-8"?>
<!DOCTYPE svg PUBLIC "-//W3C//DTD SVG 1.1//EN" "http://www.w3.org/Graphics/SVG/1.1/DTD/svg11.dtd">
<!-- Creator: CorelDRAW 2020 (64-Bit) -->
<svg xmlns="http://www.w3.org/2000/svg" xml:space="preserve" width="9.6518mm" height="7.4506mm" version="1.1" style="shape-rendering:geometricPrecision; text-rendering:geometricPrecision; image-rendering:optimizeQuality; fill-rule:evenodd; clip-rule:evenodd"
viewBox="0 0 965.18 745.06"
 xmlns:xlink="http://www.w3.org/1999/xlink"
 xmlns:xodm="http://www.corel.com/coreldraw/odm/2003">
 <defs>
  <style type="text/css">
   <![CDATA[
    .str0 {stroke:black;stroke-width:16.93;stroke-miterlimit:22.9256}
    .fil2 {fill:black}
    .fil0 {fill:black;fill-rule:nonzero}
    .fil1 {fill:#1A1A1A;fill-rule:nonzero}
   ]]>
  </style>
 </defs>
 <g id="Capa_x0020_1">
  <metadata id="CorelCorpID_0Corel-Layer"/>
  <g id="_2082572193200">
   <g>
    <path class="fil0" d="M927.3 357.63c20.98,25.84 33.31,58.78 33.31,94.05 0,62.23 -38.72,117.97 -97.08,139.79l-390.51 145.42 -468.45 -107.54 0 -76.52 468.45 107.56 300.85 -112c13.72,-5.13 25.19,-14.29 33.22,-25.77 8.02,-11.46 12.53,-25.33 12.53,-40.04 0,-1.62 -0.07,-3.23 -0.14,-4.78 -2.96,-43.93 -49.07,-71.66 -90.32,-56.32l-184.13 68.56 -72.01 26.82 -468.45 -107.49 0 -76.51 25.98 5.98 442.47 101.58 300.85 -112.06c10.2,-3.81 19.14,-9.79 26.32,-17.32 2.53,-2.6 4.86,-5.41 6.9,-8.45 0.84,-1.19 1.69,-2.53 2.46,-3.87 6.48,-10.69 10.07,-23.09 10.07,-36.17 0,-47.8 -46.74,-81.65 -92.14,-66.66l-185.27 60.81 -71.52 23.51 -93.9 -21.11 -372.22 -84.05 0 -64.47 454.68 -102.41c34.42,61.52 -21.29,134.36 -13.83,145.2l7.6 -101.61 38.78 101.61c7.4,-10.77 -66.76,-84.17 -32.55,-145.2l382.96 77.42c34.56,7.24 64.13,26.18 85.09,52.02 20.98,25.83 33.31,58.77 33.31,94.03 0,42.73 -18.16,82.36 -48.44,110.02 5.43,4.93 10.49,10.28 15.13,15.97z"/>
    <path class="fil1" d="M752.72 230l-284.11 96.31 -2.11 -0.51 -430.51 -102.14c-4.07,-0.96 -6.54,-5.03 -5.59,-9.05 0.96,-4.08 4.98,-6.59 9.06,-5.63l428.45 101.64 0.7 -0.26 279.28 -94.64c3.93,-1.32 8.21,0.75 9.57,4.72 1.34,3.92 -0.76,8.2 -4.74,9.56z"/>
    <path class="fil1" d="M752.72 271.69l-284.11 96.26 -2.11 -0.45 -430.51 -102.14c-4.07,-0.96 -6.54,-5.03 -5.59,-9.11 0.96,-4.02 4.98,-6.53 9.06,-5.58l428.45 101.64 0.7 -0.25 279.28 -94.65c3.93,-1.36 8.21,0.75 9.57,4.68 1.34,3.97 -0.76,8.25 -4.74,9.6z"/>
    <path class="fil1" d="M752.72 313.33l-284.11 96.32 -2.11 -0.5 -430.51 -102.15c-4.07,-0.96 -6.54,-5.03 -5.59,-9.05 0.96,-4.08 4.98,-6.59 9.06,-5.64l428.45 101.64 0.7 -0.24 279.28 -94.66c3.93,-1.31 8.21,0.81 9.57,4.73 1.34,3.93 -0.76,8.25 -4.74,9.55z"/>
    <path class="fil1" d="M752.98 451.19l-284.21 106.47 -0.16 -0.04 -432.62 -101.86c-4.03,-0.95 -6.54,-4.98 -5.59,-9.04 0.96,-4.08 4.98,-6.59 9.06,-5.64l428.3 100.89 0.85 -0.3 279.04 -104.56c3.92,-1.51 8.24,0.5 9.7,4.37 1.45,3.93 -0.49,8.25 -4.37,9.71z"/>
    <path class="fil1" d="M752.98 492.88l-284.21 106.48 -0.16 -0.06 -432.62 -101.84c-4.03,-0.95 -6.54,-5.02 -5.59,-9.05 0.96,-4.08 4.98,-6.59 9.06,-5.63l428.3 100.84 0.85 -0.31 279.04 -104.56c3.92,-1.45 8.24,0.5 9.7,4.43 1.45,3.92 -0.49,8.24 -4.37,9.7z"/>
    <path class="fil1" d="M752.98 534.57l-284.21 106.48 -0.16 -0.05 -432.62 -101.84c-4.03,-0.96 -6.54,-5.04 -5.59,-9.11 0.96,-4.02 4.98,-6.59 9.06,-5.58l428.3 100.84 0.85 -0.3 279.04 -104.56c3.92,-1.46 8.24,0.5 9.7,4.42 1.45,3.87 -0.49,8.25 -4.37,9.7z"/>
    <path class="fil1" d="M468.61 310.36l0 15.95 -2.11 -0.51 -430.51 -102.14c-4.07,-0.96 -6.54,-5.03 -5.59,-9.05 0.96,-4.08 4.98,-6.59 9.06,-5.63l428.45 101.64 0.7 -0.26z"/>
    <path class="fil1" d="M467.91 352.31l0.7 -0.25 0 15.89 -2.11 -0.45 -430.51 -102.14c-4.07,-0.96 -6.54,-5.03 -5.59,-9.11 0.96,-4.02 4.98,-6.53 9.06,-5.58l428.45 101.64z"/>
    <path class="fil1" d="M467.91 393.95l0.7 -0.24 0 15.94 -2.11 -0.5 -430.51 -102.15c-4.07,-0.96 -6.54,-5.03 -5.59,-9.05 0.96,-4.08 4.98,-6.59 9.06,-5.64l428.45 101.64z"/>
    <path class="fil1" d="M467.76 541.97l0.85 -0.3 0 15.95 -432.62 -101.86c-4.03,-0.95 -6.54,-4.98 -5.59,-9.04 0.96,-4.08 4.98,-6.59 9.06,-5.64l428.3 100.89z"/>
    <path class="fil1" d="M467.76 583.62l0.85 -0.31 0 15.99 -432.62 -101.84c-4.03,-0.95 -6.54,-5.02 -5.59,-9.05 0.96,-4.08 4.98,-6.59 9.06,-5.63l428.3 100.84z"/>
    <path class="fil1" d="M467.76 625.31l0.85 -0.3 0 15.99 -432.62 -101.84c-4.03,-0.96 -6.54,-5.04 -5.59,-9.11 0.96,-4.02 4.98,-6.59 9.06,-5.58l428.3 100.84z"/>
   </g>
   <rect class="fil2 str0" x="389.72" y="106.27" width="143.23" height="89.12"/>
  </g>
 </g>
</svg>
